<svg xmlns="http://www.w3.org/2000/svg" width="60" height="60.002" viewBox="0 0 60 60.002"><defs><style>.a{fill:#fff;}</style></defs><path class="a" d="M55.928,113a1.018,1.018,0,0,1-1.036,1H44.536v-3.42a7.075,7.075,0,0,0-5.341-6.755l-6.051-1.589v-1.514A6.934,6.934,0,0,0,36.25,95V93.108c.264-.117.431-.2.463-.212a1,1,0,0,0,.573-.9V86l5.55-2.061a.988.988,0,0,0,0-1.868l-13.464-5a1.081,1.081,0,0,0-.743,0l-13.464,5A1,1,0,0,0,14.5,83v4.586l-2.8,2.707,1.465,1.414L14.5,90.415V92h2.071V90.415l1.339,1.293,1.465-1.414-2.8-2.707v-3.13L20.714,86v6a1,1,0,0,0,.573.9c.032.015.2.1.463.212V95a6.8,6.8,0,0,0,3.107,5.725v1.511l-6.055,1.59a7.073,7.073,0,0,0-5.338,6.754V114H3.107a1.018,1.018,0,0,1-1.036-1V74h35V72h-35V67a1.018,1.018,0,0,1,1.036-1H34.071V64H3.107A3.055,3.055,0,0,0,0,67v46a3.055,3.055,0,0,0,3.107,3H54.893A3.055,3.055,0,0,0,58,113V73H55.928Zm-29-10v-1.3a7.286,7.286,0,0,0,4.143,0V103a.976.976,0,0,0,.362.743L29,105.7l-2.433-1.956a.976.976,0,0,0,.362-.744ZM29,79.071,39.579,83,29,86.93,18.421,83Zm-.372,9.864a1.081,1.081,0,0,0,.743,0l5.843-2.17v4.6A18.267,18.267,0,0,1,29,93a18.314,18.314,0,0,1-6.214-1.637v-4.6ZM23.821,95V93.928A16.645,16.645,0,0,0,29,95a16.645,16.645,0,0,0,5.179-1.073V95a4.973,4.973,0,0,1-2.6,4.328,5.338,5.338,0,0,1-5.18-.009A5,5,0,0,1,23.821,95Zm-8.286,15.581a5.056,5.056,0,0,1,3.815-4.825l4.885-1.283,4.1,3.3a1.064,1.064,0,0,0,1.326,0l4.1-3.3,4.882,1.282a5.058,5.058,0,0,1,3.818,4.826V114H39.357v-4H37.286v4H20.714v-4H18.643v4H15.536Zm0,0" transform="translate(0 -56)"/><path class="a" d="M48,96h2v2H48Zm0,0" transform="translate(-42 -84)"/><path class="a" d="M80,96h2v2H80Zm0,0" transform="translate(-69.643 -84)"/><path class="a" d="M112,96h2v2h-2Zm0,0" transform="translate(-97.5 -84)"/><path class="a" d="M279,0H259a3,3,0,0,0-3,3V15a3,3,0,0,0,3,3h3v4a1,1,0,0,0,.669.944A1.031,1.031,0,0,0,263,23a1,1,0,0,0,.781-.375L267.48,18H279a3,3,0,0,0,3-3V3a3,3,0,0,0-3-3Zm1,15a1,1,0,0,1-1,1H267a1,1,0,0,0-.781.375L264,19.15V17a1,1,0,0,0-1-1h-4a1,1,0,0,1-1-1V3a1,1,0,0,1,1-1h20a1,1,0,0,1,1,1Zm0,0" transform="translate(-222.001)"/><path class="a" d="M304,32h14v2H304Zm0,0" transform="translate(-264.001 -28)"/><path class="a" d="M304,64h14v2H304Zm0,0" transform="translate(-264.001 -56)"/><path class="a" d="M304,96h14v2H304Zm0,0" transform="translate(-264.001 -84)"/></svg>