<svg xmlns="http://www.w3.org/2000/svg" xmlns:xlink="http://www.w3.org/1999/xlink" width="69.227" height="59.997" viewBox="0 0 69.227 59.997"><defs><style>.a{fill:url(#a);}</style><linearGradient id="a" x1="0.5" x2="0.5" y2="1" gradientUnits="objectBoundingBox"><stop offset="0" stop-color="#ff6f61"/><stop offset="1" stop-color="#ff867a"/></linearGradient></defs><g transform="translate(0 -34.133)"><g transform="translate(0 87.207)"><g transform="translate(0 0)"><path class="a" d="M0,426.667v6.923H69.227v-6.923Zm66.919,4.615H2.308v-2.308H66.919v2.308Z" transform="translate(0 -426.667)"/></g></g><g transform="translate(12.692 34.133)"><g transform="translate(0 0)"><rect class="a" width="2.308" height="8.076"/></g></g><g transform="translate(12.692 53.747)"><rect class="a" width="2.308" height="3.461"/></g><g transform="translate(12.692 68.746)"><rect class="a" width="2.308" height="3.461"/></g><g transform="translate(12.692 83.746)"><rect class="a" width="2.308" height="3.461"/></g><g transform="translate(6.923 71.054)"><path class="a" d="M58.123,307.2a6.923,6.923,0,1,0,6.923,6.923A6.93,6.93,0,0,0,58.123,307.2Zm0,11.538a4.615,4.615,0,1,1,4.615-4.615A4.62,4.62,0,0,1,58.123,318.738Z" transform="translate(-51.2 -307.2)"/></g><g transform="translate(6.923 56.055)"><path class="a" d="M58.123,196.267a6.923,6.923,0,1,0,6.923,6.923A6.93,6.93,0,0,0,58.123,196.267Zm0,11.538a4.615,4.615,0,1,1,4.615-4.615A4.62,4.62,0,0,1,58.123,207.8Z" transform="translate(-51.2 -196.267)"/></g><g transform="translate(33.46 34.133)"><g transform="translate(0 0)"><rect class="a" width="2.308" height="23.076"/></g></g><g transform="translate(27.691 71.054)"><path class="a" d="M211.723,307.2a6.923,6.923,0,1,0,6.923,6.923A6.93,6.93,0,0,0,211.723,307.2Zm0,11.538a4.615,4.615,0,1,1,4.615-4.615A4.62,4.62,0,0,1,211.723,318.738Z" transform="translate(-204.8 -307.2)"/></g><g transform="translate(54.228 34.133)"><g transform="translate(0 0)"><rect class="a" width="2.308" height="38.075"/></g></g><g transform="translate(48.459 71.054)"><path class="a" d="M365.323,307.2a6.923,6.923,0,1,0,6.923,6.923A6.93,6.93,0,0,0,365.323,307.2Zm0,11.538a4.615,4.615,0,1,1,4.615-4.615A4.62,4.62,0,0,1,365.323,318.738Z" transform="translate(-358.4 -307.2)"/></g><g transform="translate(27.691 56.055)"><path class="a" d="M211.723,196.267a6.923,6.923,0,1,0,6.923,6.923A6.93,6.93,0,0,0,211.723,196.267Zm0,11.538a4.615,4.615,0,1,1,4.615-4.615A4.62,4.62,0,0,1,211.723,207.8Z" transform="translate(-204.8 -196.267)"/></g><g transform="translate(6.923 41.056)"><g transform="translate(0 0)"><path class="a" d="M58.123,85.333a6.923,6.923,0,1,0,6.923,6.923A6.93,6.93,0,0,0,58.123,85.333Zm0,11.538a4.615,4.615,0,1,1,4.615-4.615A4.62,4.62,0,0,1,58.123,96.871Z" transform="translate(-51.2 -85.333)"/></g></g><g transform="translate(33.46 68.746)"><rect class="a" width="2.308" height="3.461"/></g><g transform="translate(33.46 83.746)"><rect class="a" width="2.308" height="3.461"/></g><g transform="translate(54.228 83.746)"><rect class="a" width="2.308" height="3.461"/></g></g></svg>