<svg xmlns="http://www.w3.org/2000/svg" xmlns:xlink="http://www.w3.org/1999/xlink" width="319.826" height="254.575" viewBox="0 0 319.826 254.575"><defs><style>.a{fill:none;}.b{opacity:0.05;}.c{fill:#f56152;}.d{fill:#fff;}.e{fill:#ff6f61;}.f{fill:url(#a);}.g{fill:#313131;}.h,.j{fill:#d4ecff;}.i,.w{fill:#173d7a;}.i,.j{opacity:0.5;}.k{fill:#d3008d;}.l{fill:#fe7e4c;}.m{fill:#983be9;}.n{fill:#5793ce;}.o{opacity:0.3;}.p{clip-path:url(#c);}.q{fill:#79b1e0;}.r{fill:#ff2c9c;}.s{fill:#d94c3e;}.t{clip-path:url(#d);}.u{fill:#e8a200;}.v{fill:#df574a;}</style><linearGradient id="a" x1="0.5" x2="0.5" y2="1" gradientUnits="objectBoundingBox"><stop offset="0" stop-color="#ff6f61"/><stop offset="1" stop-color="#ff867a"/></linearGradient><clipPath id="c"><path class="a" d="M278.251,241.407l61.28,33.933,80.972-46.6,9.812,20.148-127.8,73.548-46.749-23.871Z" transform="translate(-255.767 -228.741)"/></clipPath><clipPath id="d"><path class="a" d="M276.533,212.466l67.3,37.268,93.305-53.7,1.449-80.737-62.112-10.1-97.214,67.791Z" transform="translate(-276.533 -105.203)"/></clipPath></defs><g transform="translate(-163.061 -70.84)"><path class="b" d="M473.346,229.519l-88.572-51.29c-4.811-2.786-13.222-2.45-18.786.752L180.1,285.959c-5.564,3.2-6.175,8.056-1.363,10.844l88.571,51.289c4.811,2.787,13.223,2.45,18.787-.752L471.982,240.362C477.547,237.16,478.157,232.305,473.346,229.519Z" transform="translate(-2.577 -26.914)"/><path class="c" d="M483.047,191.492c.136,2.95,1.964,16.144-2.263,18.577L288.1,320.948c-7.486,4.309-18.8,4.761-25.275,1.012l-92.176-53.378c-3.029-1.754-4.44-4.118-4.339-6.578l-.021.007.037-13.375,5.126,6c.333-.219.667-.438,1.031-.648L361.047,145.474c7.487-4.308,18.8-4.762,25.275-1.013L477.2,197.089" transform="translate(-0.669 -19.78)"/><path class="d" d="M224.856,326.8l5.309,3.065c.7.407,1.276-.025,1.276-.966h0a3.057,3.057,0,0,0-1.276-2.438l-5.309-3.065c-.706-.407-1.277.025-1.277.966h0A3.058,3.058,0,0,0,224.856,326.8Z" transform="translate(-12.544 -57.362)"/><path class="e" d="M511.146,203.9c.136,2.95-1.964,6.091-6.19,8.524L316.391,320.948a29.163,29.163,0,0,1-13.61,3.535l.18-129.3,86.377-49.71c7.487-4.308,18.8-4.762,25.275-1.013L505.5,197.089" transform="translate(-28.96 -31.78)"/><path class="f" d="M478.546,180.876,386.37,127.5c-6.473-3.75-17.789-3.3-25.275,1.012L172.531,237.029c-7.487,4.308-8.308,10.84-1.835,14.589L262.873,305c6.473,3.75,17.789,3.3,25.275-1.012L476.711,195.465c7.487-4.308,8.308-10.84,1.835-14.589" transform="translate(-0.678 -16.264)"/><path class="d" d="M482.8,204.748c.221,3-1.867,6.206-6.171,8.683L288.063,321.95c-7.487,4.308-18.8,4.762-25.275,1.012l-92.176-53.378c-3.338-1.933-4.721-4.607-4.266-7.335.164,2.216,1.584,4.313,4.335,5.907l92.177,53.378c6.473,3.75,17.788,3.3,25.275-1.012L476.7,212c3.626-2.086,5.673-4.694,6.1-7.255" transform="translate(-0.663 -32.802)"/><path class="g" d="M473.346,184.246l-88.572-51.29c-4.811-2.786-13.222-2.45-18.786.753L180.1,240.686c-5.564,3.2-6.175,8.057-1.363,10.844l88.571,51.29c4.811,2.786,13.223,2.45,18.787-.752L471.982,195.089C477.547,191.888,478.157,187.032,473.346,184.246Z" transform="translate(-2.577 -17.531)"/><g transform="translate(211.911 220.262)"><path class="h" d="M303.119,304.086,240.619,268l3.989-2.3,62.5,36.085Z" transform="translate(-227.986 -265.698)"/><path class="h" d="M256.33,295.473,224.683,277.2l3.989-2.3,31.646,18.271Z" transform="translate(-224.683 -267.605)"/><path class="e" d="M281.294,309.886,271.03,303.96l3.989-2.3,10.264,5.926Z" transform="translate(-234.289 -273.151)"/><path class="d" d="M300.842,321.172l-10.264-5.926,3.989-2.3,10.264,5.926Z" transform="translate(-238.341 -275.491)"/><path class="d" d="M258.335,287.43,232.651,272.6l3.989-2.3,25.684,14.829Z" transform="translate(-226.335 -266.652)"/><path class="h" d="M297.884,310.264,272.2,295.435l3.989-2.3,25.684,14.829Z" transform="translate(-234.532 -271.385)"/><g transform="translate(38.719 3.938)"><path class="e" d="M279.144,273.91a5.144,5.144,0,0,1-4.654,0c-1.285-.742-1.285-1.945,0-2.687a5.144,5.144,0,0,1,4.654,0C280.43,271.964,280.43,273.168,279.144,273.91Z" transform="translate(-273.526 -270.666)"/><path class="d" d="M287.917,278.975a5.149,5.149,0,0,1-4.654,0c-1.285-.743-1.285-1.945,0-2.687a5.143,5.143,0,0,1,4.654,0C289.2,277.029,289.2,278.233,287.917,278.975Z" transform="translate(-275.345 -271.716)"/><path class="h" d="M296.69,284.039a5.144,5.144,0,0,1-4.654,0c-1.286-.742-1.286-1.945,0-2.687a5.144,5.144,0,0,1,4.654,0C297.975,282.094,297.975,283.3,296.69,284.039Z" transform="translate(-277.163 -272.766)"/><path class="e" d="M305.462,289.1a5.144,5.144,0,0,1-4.654,0c-1.285-.742-1.285-1.945,0-2.687a5.144,5.144,0,0,1,4.654,0C306.748,287.159,306.748,288.362,305.462,289.1Z" transform="translate(-278.981 -273.815)"/><path class="d" d="M314.235,294.169a5.144,5.144,0,0,1-4.654,0c-1.285-.742-1.285-1.945,0-2.687a5.146,5.146,0,0,1,4.654,0C315.52,292.224,315.52,293.427,314.235,294.169Z" transform="translate(-280.8 -274.865)"/></g></g><g transform="translate(366.323 131.282)"><path class="e" d="M489.286,196.443l-10.523-6.076,4.09-2.361,10.523,6.076Z" transform="translate(-431.759 -160.614)"/><path class="d" d="M507.77,207.115l-10.523-6.076,4.09-2.361,10.523,6.076Z" transform="translate(-435.59 -162.826)"/><path class="d" d="M429.992,161.889l-10.523-6.076,4.09-2.361,10.523,6.076Z" transform="translate(-419.469 -153.452)"/><path class="d" d="M485.247,203.544l-14.653-8.46,4.09-2.361,14.653,8.46Z" transform="translate(-430.065 -161.591)"/><path class="h" d="M500.671,212.449l-6.43-3.712,4.09-2.361,6.43,3.712Z" transform="translate(-434.967 -164.421)"/></g><path class="i" d="M396.6,380.809c-4.007-2.313-4.442-5.814-.972-7.817l36.677-21.175c2.9-1.672,7.594-1.769,11.4-.412L453.8,345.5c-9.468-7.055-10.326-16.717-2.574-24.245A21.039,21.039,0,0,0,458,327.146c12.147,7.012,31.84,7.012,43.987,0,4.741-2.737,7.6-6.14,8.639-9.686,13.851,8.468,13.61,21.814-.748,30.1-14.184,8.189-36.9,8.406-51.585.7l-10.179,5.958c1.719,2.071,1.339,4.452-1.294,5.972L410.142,381.37" transform="translate(-47.719 -56.164)"/><g transform="translate(336.149 237.668)"><path class="j" d="M516.6,302.194c-12.147-7.013-31.841-7.013-43.987,0-5.036,2.908-7.977,6.565-8.837,10.349.758,3.338,3.141,6.575,7.146,9.288a25.446,25.446,0,0,1,3.394-2.334c12.147-7.012,31.84-7.012,43.987,0,.6.346,1.158.7,1.7,1.071a14.812,14.812,0,0,0,5.437-8.024C524.573,308.758,521.632,305.1,516.6,302.194Z" transform="translate(-398.478 -289.578)"/><path class="e" d="M462.2,316.639l4.746-6.187,14.409-6.7,12.414-1.1,14.538,1.78,10.087,5.212,6.441,4.111,1.158-6.7-2.175-7.712s-5.509-3.644-5.848-3.983-12.883-4.831-12.883-4.831l-12.544-.848-10.086,1.272L472.2,294.009l-6.78,4.747-5.085,6.441-.572,8.052Z" transform="translate(-397.648 -288.075)"/><path class="k" d="M546.8,313.661v13.033l-3.485-5.65Z" transform="translate(-414.965 -293.045)"/><path class="f" d="M472.2,312.445c12.146-7.013,31.84-7.013,43.987,0a19.3,19.3,0,0,1,7.854,7.64c1.07-.958,2.448-1.71,3.02-3a24.517,24.517,0,0,0-7.619-6.52c-13.945-8.051-36.554-8.051-50.5,0a25.263,25.263,0,0,0-7.152,5.9,10.674,10.674,0,0,0,2.549,3.631A19.294,19.294,0,0,1,472.2,312.445Z" transform="translate(-398.068 -291.151)"/><path class="j" d="M517.587,303.62c-12.375-8.914-32.439-8.914-44.813,0-5.131,3.7-8.127,8.344-9,13.154.875,4.81,3.872,9.459,9,13.155,12.375,8.913,32.438,8.913,44.813,0,5.13-3.7,8.126-8.344,9-13.154C525.714,311.964,522.718,307.315,517.587,303.62Z" transform="translate(-399.125 -296.508)"/><path class="c" d="M526.195,318.937a4.312,4.312,0,0,1-1.085,1.409l-.011-.136-3.221,1.921-3.955,3.673-5.481,2.429-7.571,2.713-6.724,1.582-9.267.4-5.989-.621-11.866-3.108-7.732-6.836c.063-.137.113-.275.182-.411a10.674,10.674,0,0,1-2.549-3.631c-.209.261-.407.524-.6.788l-2.71-5.646v13.536l.006-.012c-.006,5.28,3.475,10.562,10.453,14.59,13.945,8.051,36.554,8.051,50.5,0C529.177,335.452,531.71,326.443,526.195,318.937Z" transform="translate(-397.203 -293.003)"/><path class="c" d="M466.081,324.823l-2.789-2.465c.063-.137.113-.275.182-.411a10.674,10.674,0,0,1-2.549-3.631c-.209.261-.407.524-.6.788l-2.71-5.646v13.536l.006-.012c0,4.747,2.817,9.491,8.455,13.329Z" transform="translate(-397.203 -293.003)"/><path class="l" d="M518.576,293.693c-13.945-8.052-36.554-8.052-50.5,0s-13.945,21.1,0,29.156,36.554,8.051,50.5,0S532.522,301.744,518.576,293.693Zm-3.255,27.275c-12.147,7.013-31.84,7.013-43.987,0s-12.147-18.383,0-25.4,31.84-7.012,43.987,0S527.467,313.956,515.321,320.968Z" transform="translate(-397.203 -287.654)"/><g transform="translate(0 38.32)"><g transform="translate(47.015)"><path class="h" d="M441.349,347.676,461.14,336.16l2.631,4.263L443.89,352Z" transform="translate(-440.846 -336.028)"/><path class="m" d="M444.261,353.841c0,1.131-.794,1.589-1.773,1.024a3.922,3.922,0,0,1-1.774-3.073c0-1.131.794-1.59,1.774-1.024A3.92,3.92,0,0,1,444.261,353.841Z" transform="translate(-440.714 -339.005)"/><path class="m" d="M444.261,353.841c0,1.131-.794,1.589-1.773,1.024a3.922,3.922,0,0,1-1.774-3.073c0-1.131.794-1.59,1.774-1.024A3.92,3.92,0,0,1,444.261,353.841Z" transform="translate(-440.714 -339.005)"/><path class="h" d="M469.236,339.308c0,1.131-.794,1.589-1.774,1.024a3.922,3.922,0,0,1-1.774-3.073c0-1.132.794-1.59,1.774-1.024A3.919,3.919,0,0,1,469.236,339.308Z" transform="translate(-445.89 -335.993)"/></g><path class="n" d="M443.1,352.033a16.871,16.871,0,0,0-7.634-13.222c-2.158-1.246-4.1-1.331-5.491-.47l0,0-41.843,24.319,10.934,18.611,41.4-24.1a3.646,3.646,0,0,0,.8-.464l.035-.021,0,0A5.68,5.68,0,0,0,443.1,352.033Z" transform="translate(-382.8 -336.362)"/><path class="h" d="M391.156,367.81l46.832-27.038a12.741,12.741,0,0,0-2.524-1.96c-2.158-1.246-4.1-1.331-5.491-.47l0,0-41.843,24.319Z" transform="translate(-382.8 -336.362)"/><g transform="translate(0 23.134)"><ellipse class="h" cx="6.233" cy="10.795" rx="6.233" ry="10.795" transform="translate(0 6.233) rotate(-30.001)"/><path class="n" d="M394.235,382.291a4.972,4.972,0,1,1-4.973-4.972A4.973,4.973,0,0,1,394.235,382.291Z" transform="translate(-382.004 -367.693)"/><path class="d" d="M388.647,380.909a1.469,1.469,0,1,1-1.47-1.469A1.47,1.47,0,0,1,388.647,380.909Z" transform="translate(-382.298 -368.132)"/></g><path class="d" d="M394.251,369.1c-2.256-1.3-4.277-1.333-5.674-.343,1.354-.631,3.142-.466,5.112.671a16.871,16.871,0,0,1,7.633,13.222c0,2.262-.745,3.89-1.959,4.749,1.545-.721,2.522-2.482,2.522-5.077A16.875,16.875,0,0,0,394.251,369.1Z" transform="translate(-382.893 -342.64)"/></g><g transform="translate(60.426 2.659)"><path class="d" d="M516.526,296.268c-12.147-7.012-31.841-7.013-43.987,0-6.325,3.651-9.349,8.485-9.086,13.269.242-4.4,3.265-8.764,9.086-12.126,12.146-7.012,31.84-7.012,43.987,0,5.821,3.36,8.845,7.723,9.086,12.126C525.875,304.753,522.851,299.92,516.526,296.268Z" transform="translate(-458.835 -291.008)"/><path class="d" d="M518.579,328.389c-13.945,8.05-36.553,8.05-50.5,0-6.721-3.88-10.193-8.922-10.436-14.006-.262,5.465,3.211,10.979,10.436,15.15,13.945,8.052,36.553,8.052,50.5,0,7.224-4.171,10.7-9.685,10.435-15.15C528.771,319.467,525.3,324.508,518.579,328.389Z" transform="translate(-457.632 -295.853)"/></g></g><g class="o" transform="translate(236.552 190.966)"><g class="p" transform="translate(0)"><g transform="translate(22.483 -61.31)"><g transform="translate(53.126)"><g transform="translate(0 80.128)"><path class="h" d="M353.66,261.654c-3.353,1.936-3.353,5.086,0,7.022l56.993,32.905a3.693,3.693,0,0,0,3.339,0,1.018,1.018,0,0,0,0-1.928L357,266.748c-1.512-.873-1.512-2.293,0-3.166l5.523-3.188c-.614-.924-1.171-1.884-1.715-2.865Z" transform="translate(-351.146 -253.526)"/><path class="n" d="M436.906,286.836l-56.993-32.9a13.462,13.462,0,0,0-12.161,0l-4.419,2.552c.545.981,1.1,1.941,1.715,2.865l6.042-3.489a6.067,6.067,0,0,1,5.485,0l56.993,32.905a3.691,3.691,0,0,0,3.338,0A1.018,1.018,0,0,0,436.906,286.836Z" transform="translate(-353.671 -252.479)"/></g><path class="n" d="M435.8,267.317l.006-80.142-59.726-33.295-8.352-.551-8.077,5.232-4.956,4.314,58.192,92.279,19,11.2Z" transform="translate(-351.881 -151.8)"/><path class="q" d="M429,286.943l17.852-10.306V199.183l-18.4,8.554Z" transform="translate(-367.168 -161.305)"/><path class="h" d="M351.148,166.154v80.011l62.7,35.864.837-.335V201.565Z" transform="translate(-351.146 -154.459)"/><g transform="translate(4.953 4.703)"><path class="d" d="M387.706,164.988l-12.461-7.159a6.116,6.116,0,0,0-5.157.154l-11.565,6.677a1.765,1.765,0,0,0-1.091,1.9l31.487,18.816L414.212,200.9l17.913-10.391Z" transform="translate(-357.393 -157.333)"/></g><path class="n" d="M428.45,209.237v82.728a3.374,3.374,0,0,0,1.566-.393,1.181,1.181,0,0,0,.688-.947l0,0V210.5Z" transform="translate(-367.169 -163.388)"/><path class="d" d="M456.907,197.025v-1h-.318l-.1.679Z" transform="translate(-372.981 -160.65)"/><path class="d" d="M431.214,211.866v-1.024l-.308.434Z" transform="translate(-367.678 -163.721)"/><path class="h" d="M410.654,199.456,353.66,166.551c-3.353-1.936-3.353-5.086,0-7.021l11.565-6.677a13.459,13.459,0,0,1,12.161,0l56.993,32.9a1.018,1.018,0,0,1,0,1.928,3.691,3.691,0,0,1-3.338,0l-56.993-32.905a6.072,6.072,0,0,0-5.485,0L357,161.457c-1.512.873-1.512,2.293,0,3.167l56.994,32.9a1.018,1.018,0,0,1,0,1.928A3.693,3.693,0,0,1,410.654,199.456Z" transform="translate(-351.146 -151.4)"/><path class="d" d="M399.733,247.639l-29.616-17.1V200.85l29.616,17.1Z" transform="translate(-355.078 -161.65)"/><g transform="translate(0.004 2.724)"><path class="d" d="M435.615,188.4a3.691,3.691,0,0,1-3.338,0l-56.993-32.905a6.072,6.072,0,0,0-5.485,0l-11.565,6.677c-.99.572-1.327,1.378-1.021,2.111a2.3,2.3,0,0,1,1.021-1.055l11.565-6.678a6.07,6.07,0,0,1,5.485,0l56.993,32.9a3.686,3.686,0,0,0,3.338,0c.7-.4.866-1,.5-1.491A1.6,1.6,0,0,1,435.615,188.4Z" transform="translate(-352.385 -154.837)"/><path class="d" d="M413.994,202.637a3.69,3.69,0,0,1-3.339,0l-56.993-32.9a4.6,4.6,0,0,1-2.462-2.983c-.265,1.441.553,2.936,2.462,4.038l56.993,32.905a3.693,3.693,0,0,0,3.339,0c.7-.4.865-1,.5-1.491A1.608,1.608,0,0,1,413.994,202.637Z" transform="translate(-351.151 -157.306)"/></g></g><g transform="translate(26.924 15.513)"><g transform="translate(0 80.128)"><path class="r" d="M320.607,281.223c-3.352,1.936-3.352,5.086,0,7.022l56.993,32.9a3.686,3.686,0,0,0,3.338,0,1.017,1.017,0,0,0,0-1.927l-56.993-32.905c-1.513-.873-1.513-2.293,0-3.166l5.523-3.188c-.614-.924-1.171-1.884-1.716-2.865Z" transform="translate(-318.092 -273.095)"/><path class="k" d="M403.853,306.4l-56.993-32.9a13.461,13.461,0,0,0-12.162,0l-4.419,2.552c.545.981,1.1,1.941,1.716,2.865l6.042-3.489a6.07,6.07,0,0,1,5.484,0l56.994,32.905a3.691,3.691,0,0,0,3.338,0A1.018,1.018,0,0,0,403.853,306.4Z" transform="translate(-320.618 -272.048)"/></g><path class="e" d="M402.748,286.886l.006-80.142L343.028,173.45l-8.352-.551-8.077,5.232-4.956,4.314,58.192,92.279,19,11.2Z" transform="translate(-318.828 -171.369)"/><path class="s" d="M395.947,306.512,413.8,296.205V218.752l-18.4,8.554Z" transform="translate(-334.115 -180.873)"/><path class="e" d="M318.094,185.723v80.011l62.7,35.864.837-.335V221.134Z" transform="translate(-318.093 -174.028)"/><g transform="translate(4.952 4.703)"><path class="d" d="M354.653,184.557,342.192,177.4a6.118,6.118,0,0,0-5.157.154l-11.565,6.677a1.767,1.767,0,0,0-1.091,1.9l31.487,18.816,25.292,15.524,17.913-10.391Z" transform="translate(-324.34 -176.902)"/></g><path class="c" d="M395.4,228.806v82.728a3.362,3.362,0,0,0,1.566-.394,1.176,1.176,0,0,0,.688-.946l0,0V230.064Z" transform="translate(-334.115 -182.957)"/><path class="d" d="M423.853,216.593v-1h-.319l-.1.679Z" transform="translate(-339.927 -180.219)"/><path class="d" d="M398.16,231.435v-1.024l-.308.434Z" transform="translate(-334.624 -183.29)"/><path class="r" d="M377.6,219.025,320.607,186.12c-3.353-1.936-3.353-5.086,0-7.021l11.565-6.677a13.461,13.461,0,0,1,12.162,0l56.993,32.9a1.018,1.018,0,0,1,0,1.928,3.691,3.691,0,0,1-3.338,0l-56.994-32.905a6.07,6.07,0,0,0-5.484,0l-11.565,6.677c-1.513.873-1.513,2.293,0,3.166L380.939,217.1a1.018,1.018,0,0,1,0,1.928A3.691,3.691,0,0,1,377.6,219.025Z" transform="translate(-318.092 -170.969)"/><path class="d" d="M366.679,267.208l-29.616-17.1v-29.69l29.616,17.1Z" transform="translate(-322.024 -181.219)"/><g transform="translate(0.004 2.724)"><path class="d" d="M402.562,207.966a3.691,3.691,0,0,1-3.338,0L342.23,175.061a6.07,6.07,0,0,0-5.484,0l-11.565,6.677c-.99.572-1.328,1.377-1.021,2.111a2.3,2.3,0,0,1,1.021-1.056l11.565-6.677a6.068,6.068,0,0,1,5.484,0l56.994,32.9a3.686,3.686,0,0,0,3.338,0c.7-.4.865-1,.5-1.491A1.612,1.612,0,0,1,402.562,207.966Z" transform="translate(-319.331 -174.406)"/><path class="d" d="M380.94,222.206a3.691,3.691,0,0,1-3.338,0L320.608,189.3a4.6,4.6,0,0,1-2.463-2.983c-.265,1.441.554,2.936,2.463,4.038L377.6,223.262a3.691,3.691,0,0,0,3.338,0c.7-.4.865-1,.5-1.491A1.611,1.611,0,0,1,380.94,222.206Z" transform="translate(-318.097 -176.875)"/></g></g><g transform="translate(0 41.495)"><g transform="translate(0 80.128)"><path class="h" d="M286.643,314c-3.352,1.936-3.352,5.086,0,7.022l56.994,32.905a3.691,3.691,0,0,0,3.338,0,1.018,1.018,0,0,0,0-1.928l-56.993-32.905c-1.513-.873-1.513-2.293,0-3.166l5.522-3.188c-.614-.924-1.171-1.884-1.715-2.865Z" transform="translate(-284.128 -305.871)"/><path class="n" d="M369.889,339.181l-56.993-32.9a13.458,13.458,0,0,0-12.162,0l-4.419,2.551c.545.981,1.1,1.941,1.715,2.865l6.043-3.489a6.065,6.065,0,0,1,5.484,0l56.993,32.905a3.693,3.693,0,0,0,3.339,0A1.018,1.018,0,0,0,369.889,339.181Z" transform="translate(-286.654 -304.824)"/></g><path class="n" d="M368.784,319.662l.006-80.142-59.726-33.295-8.352-.551-8.077,5.232-4.956,4.314L345.87,307.5l19,11.2Z" transform="translate(-284.864 -204.145)"/><path class="q" d="M361.983,339.288l17.852-10.306V251.528l-18.4,8.554Z" transform="translate(-300.151 -213.65)"/><path class="h" d="M284.13,218.5V298.51l62.7,35.864.837-.335V253.91Z" transform="translate(-284.129 -206.804)"/><g transform="translate(4.953 4.703)"><path class="d" d="M320.688,217.333l-12.46-7.159a6.118,6.118,0,0,0-5.158.154L291.506,217a1.768,1.768,0,0,0-1.091,1.9L321.9,237.721l25.292,15.524,17.913-10.391Z" transform="translate(-290.376 -209.678)"/></g><path class="n" d="M361.432,261.582V344.31a3.352,3.352,0,0,0,1.566-.394,1.176,1.176,0,0,0,.688-.946l0,0V262.84Z" transform="translate(-300.151 -215.733)"/><path class="d" d="M389.889,249.37v-1h-.319l-.1.679Z" transform="translate(-305.963 -212.995)"/><path class="d" d="M364.2,264.211v-1.024l-.308.434Z" transform="translate(-300.66 -216.066)"/><path class="h" d="M343.637,251.8,286.643,218.9c-3.352-1.936-3.352-5.086,0-7.021l11.565-6.677a13.461,13.461,0,0,1,12.162,0L367.363,238.1a1.017,1.017,0,0,1,0,1.927,3.693,3.693,0,0,1-3.339,0l-56.993-32.905a6.07,6.07,0,0,0-5.484,0L289.982,213.8c-1.513.873-1.513,2.293,0,3.167l56.993,32.9a1.018,1.018,0,0,1,0,1.928A3.691,3.691,0,0,1,343.637,251.8Z" transform="translate(-284.128 -203.745)"/><path class="d" d="M332.715,299.984l-29.616-17.1v-29.69l29.616,17.1Z" transform="translate(-288.06 -213.995)"/><g transform="translate(0.004 2.724)"><path class="d" d="M368.6,240.742a3.693,3.693,0,0,1-3.339,0l-56.993-32.905a6.07,6.07,0,0,0-5.484,0l-11.565,6.677c-.99.572-1.328,1.378-1.022,2.111a2.3,2.3,0,0,1,1.022-1.055l11.565-6.677a6.065,6.065,0,0,1,5.484,0l56.993,32.9a3.688,3.688,0,0,0,3.339,0c.7-.4.865-1,.5-1.491A1.611,1.611,0,0,1,368.6,240.742Z" transform="translate(-285.367 -207.182)"/><path class="d" d="M346.976,254.982a3.689,3.689,0,0,1-3.338,0l-56.994-32.9a4.6,4.6,0,0,1-2.462-2.983c-.265,1.441.553,2.936,2.462,4.038l56.994,32.905a3.691,3.691,0,0,0,3.338,0c.7-.4.865-1,.5-1.491A1.622,1.622,0,0,1,346.976,254.982Z" transform="translate(-284.133 -209.651)"/></g></g></g></g></g><g transform="translate(253.014 93.034)"><g class="t" transform="translate(0)"><g transform="translate(19.26 55.275)"><g transform="translate(77.646 36.853)"><path class="u" d="M415.716,221.419l-4.759,15.608-12.18,8.382,9.239,3.767-2.769,15.491,10.469-13.477,10.469,1.388-2.769-12.293,9.24-14.436-12.18,5.682Z" transform="translate(-398.777 -221.419)"/><path class="k" d="M444.9,230.271l-5.684-3.263-8.779,4.1s.03,5.9,0,6.043a30.8,30.8,0,0,0,3.864.316C434.548,237.462,444.9,230.271,444.9,230.271Z" transform="translate(-405.34 -222.577)"/><path class="k" d="M406.939,272.017l5.684,3.263,2.769-15.491s-2.755-2.908-2.743-2.908-3.1.526-3.1.526Z" transform="translate(-400.469 -228.769)"/><path class="r" d="M422.886,225.535l-4.759,15.608-12.18,8.382,9.24,3.767-2.769,15.491,10.469-13.477,10.469,1.388L430.585,244.4l9.24-14.436-12.18,5.682Z" transform="translate(-400.263 -222.272)"/><path class="d" d="M413.528,267.352l2.608-14.584-8.427-3.434,11.139-7.666,4.205-13.8,4.186,8.9,11.737-5.475.849-1.325-12.18,5.682-4.759-10.113-4.759,15.608-12.18,8.382,9.239,3.767-2.769,15.491Z" transform="translate(-400.263 -222.272)"/><path class="k" d="M424.585,224.682l-5.684-3.263-4.759,15.608,5.684,3.263Z" transform="translate(-401.962 -221.419)"/><path class="k" d="M398.777,249.49l5.684,3.263,12.18-8.382-5.684-3.263Z" transform="translate(-398.777 -225.5)"/><path class="d" d="M419.437,244.653l.866-.5-6.139-3.572-.127.417-.4.278Z" transform="translate(-401.856 -225.391)"/></g><g transform="translate(38.823 59.075)"><path class="u" d="M366.742,249.452l-4.759,15.608-12.18,8.382,9.24,3.767L356.273,292.7l10.469-13.477,10.469,1.388-2.769-12.293,9.24-14.436-12.18,5.682Z" transform="translate(-349.803 -249.452)"/><path class="k" d="M395.928,258.3l-5.684-3.263-8.779,4.1s.03,5.9,0,6.043a30.792,30.792,0,0,0,3.864.316C385.574,265.5,395.928,258.3,395.928,258.3Z" transform="translate(-356.365 -250.61)"/><path class="k" d="M357.965,300.05l5.684,3.263,2.769-15.491s-2.755-2.908-2.743-2.908-3.1.526-3.1.526Z" transform="translate(-351.495 -256.802)"/><path class="r" d="M373.912,253.568l-4.759,15.608-12.18,8.382,9.239,3.767-2.769,15.491,10.469-13.477,10.469,1.388-2.769-12.293L390.851,258l-12.18,5.682Z" transform="translate(-351.289 -250.305)"/><path class="d" d="M364.554,295.385l2.608-14.584-8.427-3.434,11.139-7.666,4.205-13.8,4.186,8.9L390,259.325l.849-1.326-12.181,5.682-4.758-10.113-4.759,15.608-12.18,8.382,9.239,3.766-2.769,15.491Z" transform="translate(-351.289 -250.305)"/><path class="k" d="M375.61,252.715l-5.684-3.263-4.758,15.608,5.684,3.263Z" transform="translate(-352.988 -249.452)"/><path class="k" d="M349.8,277.523l5.684,3.263,12.18-8.382-5.684-3.263Z" transform="translate(-349.803 -253.533)"/><path class="d" d="M370.463,272.687l.866-.5-6.139-3.572-.127.417-.4.278Z" transform="translate(-352.882 -253.424)"/></g><g transform="translate(0 81.298)"><path class="u" d="M317.768,277.485l-4.758,15.608-12.18,8.382,9.239,3.767L307.3,320.732l10.469-13.477,10.469,1.388-2.769-12.293,9.239-14.436-12.18,5.682Z" transform="translate(-300.829 -277.485)"/><path class="k" d="M346.953,286.337l-5.684-3.263-8.778,4.1s.03,5.9,0,6.043a30.8,30.8,0,0,0,3.864.316C336.6,293.528,346.953,286.337,346.953,286.337Z" transform="translate(-307.391 -278.643)"/><path class="k" d="M308.99,328.083l5.684,3.263,2.77-15.491s-2.755-2.908-2.743-2.908-3.1.526-3.1.526Z" transform="translate(-302.52 -284.835)"/><path class="r" d="M324.938,281.6l-4.758,15.608L308,305.591l9.24,3.767-2.769,15.491,10.469-13.477,10.469,1.388-2.769-12.293,9.24-14.436-12.18,5.682Z" transform="translate(-302.315 -278.338)"/><path class="d" d="M315.58,323.418l2.608-14.584-8.427-3.434,11.139-7.666,4.205-13.8,4.186,8.9,11.737-5.475.848-1.326-12.18,5.683L324.938,281.6l-4.759,15.608L308,305.591l9.239,3.766-2.77,15.491Z" transform="translate(-302.315 -278.338)"/><path class="k" d="M326.636,280.748l-5.684-3.263-4.758,15.608,5.684,3.263Z" transform="translate(-304.013 -277.485)"/><path class="k" d="M300.829,305.556l5.684,3.263,12.18-8.382-5.684-3.263Z" transform="translate(-300.829 -281.566)"/><path class="d" d="M321.488,300.72l.866-.5-6.139-3.572-.127.417-.4.278Z" transform="translate(-303.908 -281.457)"/></g><g transform="translate(50.634)"><path class="u" d="M381.641,174.93l-4.758,15.608L364.7,198.92l9.24,3.767-2.769,15.491L381.641,204.7l10.469,1.388L389.341,193.8l9.24-14.436-12.18,5.682Z" transform="translate(-364.702 -174.93)"/><path class="k" d="M410.826,183.783l-5.684-3.263-8.779,4.1s.031,5.9,0,6.043a30.831,30.831,0,0,0,3.864.315C400.473,190.974,410.826,183.783,410.826,183.783Z" transform="translate(-371.265 -176.089)"/><path class="k" d="M372.864,225.528l5.684,3.263,2.77-15.49s-2.756-2.908-2.743-2.908-3.1.526-3.1.526Z" transform="translate(-366.394 -182.281)"/><path class="r" d="M388.811,179.046l-4.758,15.608-12.18,8.382,9.24,3.767-2.769,15.491,10.469-13.477,10.469,1.388-2.77-12.293,9.24-14.436-12.18,5.682Z" transform="translate(-366.188 -175.784)"/><path class="d" d="M379.453,220.864l2.609-14.585-8.427-3.433,11.139-7.666,4.205-13.8,4.186,8.9L404.9,184.8l.849-1.325-12.18,5.682-4.759-10.114-4.759,15.608-12.18,8.382,9.24,3.767-2.77,15.491Z" transform="translate(-366.188 -175.783)"/><path class="k" d="M390.51,178.193l-5.684-3.263-4.758,15.608,5.684,3.263Z" transform="translate(-367.887 -174.93)"/><path class="k" d="M364.7,203l5.684,3.263,12.18-8.382-5.684-3.263Z" transform="translate(-364.702 -179.011)"/><path class="d" d="M385.362,198.165l.866-.5-6.139-3.572-.127.417-.4.278Z" transform="translate(-367.781 -178.902)"/></g><g transform="translate(11.811 22.223)"><path class="u" d="M332.667,202.964l-4.759,15.608-12.18,8.382,9.239,3.767L322.2,246.211l10.469-13.477,10.469,1.388-2.769-12.293,9.24-14.436-12.18,5.682Z" transform="translate(-315.728 -202.964)"/><path class="k" d="M361.853,211.816l-5.684-3.263-8.779,4.1s.03,5.9,0,6.043a30.813,30.813,0,0,0,3.864.316C351.5,219.007,361.853,211.816,361.853,211.816Z" transform="translate(-322.291 -204.122)"/><path class="k" d="M323.89,253.562l5.684,3.263,2.769-15.491s-2.755-2.908-2.743-2.908-3.1.526-3.1.526Z" transform="translate(-317.42 -210.314)"/><path class="r" d="M339.837,207.08l-4.759,15.608L322.9,231.07l9.24,3.767-2.769,15.491,10.469-13.477,10.469,1.388-2.769-12.293,9.239-14.436-12.18,5.682Z" transform="translate(-317.214 -203.817)"/><path class="d" d="M330.479,248.9l2.609-14.585-8.428-3.433,11.139-7.666,4.2-13.8,4.186,8.9,11.737-5.475.849-1.325-12.18,5.682-4.759-10.113-4.759,15.607L322.9,231.07l9.239,3.767-2.769,15.491Z" transform="translate(-317.214 -203.817)"/><path class="k" d="M341.536,206.227l-5.684-3.263-4.759,15.608,5.684,3.263Z" transform="translate(-318.913 -202.964)"/><path class="k" d="M315.728,231.035l5.684,3.263,12.18-8.382-5.684-3.263Z" transform="translate(-315.728 -207.044)"/><path class="d" d="M336.388,226.2l.866-.5-6.139-3.572-.127.417-.4.278Z" transform="translate(-318.807 -206.935)"/></g></g><g transform="translate(6.021 19.451)"><g transform="translate(53.126)"><g transform="translate(0 80.128)"><path class="h" d="M353.66,240c-3.353,1.936-3.353,5.085,0,7.021l56.993,32.905a3.693,3.693,0,0,0,3.339,0,1.017,1.017,0,0,0,0-1.927L357,245.089c-1.512-.874-1.512-2.293,0-3.167l5.523-3.188c-.614-.923-1.171-1.884-1.715-2.864Z" transform="translate(-351.146 -231.866)"/><path class="n" d="M436.906,265.177l-56.993-32.905a13.459,13.459,0,0,0-12.161,0l-4.419,2.552c.545.981,1.1,1.941,1.715,2.864l6.042-3.488a6.067,6.067,0,0,1,5.485,0l56.993,32.9a3.686,3.686,0,0,0,3.338,0A1.017,1.017,0,0,0,436.906,265.177Z" transform="translate(-353.671 -230.82)"/></g><path class="n" d="M435.8,245.658l.006-80.142-59.726-33.295-8.352-.551-8.077,5.232-4.956,4.314L412.887,233.5l19,11.2Z" transform="translate(-351.881 -130.141)"/><path class="q" d="M429,265.284l17.852-10.307V177.524l-18.4,8.554Z" transform="translate(-367.168 -139.645)"/><path class="h" d="M351.148,144.495v80.011l62.7,35.864.837-.335V179.906Z" transform="translate(-351.146 -132.799)"/><g transform="translate(4.953 4.704)"><path class="d" d="M387.706,143.329l-12.461-7.16a6.116,6.116,0,0,0-5.157.155L358.523,143a1.765,1.765,0,0,0-1.091,1.9l31.487,18.815,25.292,15.525,17.913-10.391Z" transform="translate(-357.393 -135.674)"/></g><path class="n" d="M428.45,187.578v82.728a3.364,3.364,0,0,0,1.566-.393,1.181,1.181,0,0,0,.688-.947l0,0V188.835Z" transform="translate(-367.169 -141.729)"/><path class="d" d="M456.907,175.365v-1h-.318l-.1.679Z" transform="translate(-372.981 -138.99)"/><path class="d" d="M431.214,190.207v-1.024l-.308.435Z" transform="translate(-367.678 -142.061)"/><path class="h" d="M410.654,177.8,353.66,144.891c-3.353-1.936-3.353-5.085,0-7.021l11.565-6.677a13.459,13.459,0,0,1,12.161,0L434.38,164.1a1.017,1.017,0,0,1,0,1.927,3.686,3.686,0,0,1-3.338,0l-56.993-32.9a6.067,6.067,0,0,0-5.485,0L357,139.8c-1.512.873-1.512,2.293,0,3.166l56.994,32.905a1.017,1.017,0,0,1,0,1.927A3.688,3.688,0,0,1,410.654,177.8Z" transform="translate(-351.146 -129.741)"/><path class="d" d="M399.733,225.979l-29.616-17.1v-29.69l29.616,17.1Z" transform="translate(-355.078 -139.99)"/><g transform="translate(0.004 2.725)"><path class="d" d="M435.615,166.737a3.686,3.686,0,0,1-3.338,0l-56.993-32.9a6.067,6.067,0,0,0-5.485,0l-11.565,6.676c-.99.572-1.327,1.378-1.021,2.112a2.3,2.3,0,0,1,1.021-1.056l11.565-6.677a6.072,6.072,0,0,1,5.485,0l56.993,32.905a3.691,3.691,0,0,0,3.338,0c.7-.4.866-1,.5-1.492A1.592,1.592,0,0,1,435.615,166.737Z" transform="translate(-352.385 -133.178)"/><path class="d" d="M413.994,180.978a3.693,3.693,0,0,1-3.339,0l-56.993-32.905a4.6,4.6,0,0,1-2.462-2.982c-.265,1.44.553,2.936,2.462,4.038l56.993,32.905a3.693,3.693,0,0,0,3.339,0c.7-.4.865-1,.5-1.492A1.6,1.6,0,0,1,413.994,180.978Z" transform="translate(-351.151 -135.647)"/></g></g><g transform="translate(26.924 32.683)"><g transform="translate(0 80.128)"><path class="r" d="M320.607,281.223c-3.352,1.936-3.352,5.086,0,7.022l56.993,32.9a3.686,3.686,0,0,0,3.338,0,1.017,1.017,0,0,0,0-1.927l-56.993-32.905c-1.513-.873-1.513-2.293,0-3.166l5.523-3.188c-.614-.924-1.171-1.884-1.716-2.865Z" transform="translate(-318.092 -273.095)"/><path class="k" d="M403.853,306.4l-56.993-32.9a13.461,13.461,0,0,0-12.162,0l-4.419,2.552c.545.981,1.1,1.941,1.716,2.865l6.042-3.489a6.07,6.07,0,0,1,5.484,0l56.994,32.905a3.691,3.691,0,0,0,3.338,0A1.018,1.018,0,0,0,403.853,306.4Z" transform="translate(-320.618 -272.048)"/></g><path class="c" d="M402.748,286.886l.006-80.142L343.028,173.45l-8.352-.551-8.077,5.232-4.956,4.314,58.192,92.279,19,11.2Z" transform="translate(-318.828 -171.369)"/><path class="s" d="M395.947,306.512,413.8,296.205V218.752l-18.4,8.554Z" transform="translate(-334.115 -180.873)"/><path class="e" d="M318.094,185.723v80.011l62.7,35.864.837-.335V221.134Z" transform="translate(-318.093 -174.028)"/><g transform="translate(4.952 4.703)"><path class="d" d="M354.653,184.557,342.192,177.4a6.118,6.118,0,0,0-5.157.154l-11.565,6.677a1.767,1.767,0,0,0-1.091,1.9l31.487,18.816,25.292,15.524,17.913-10.391Z" transform="translate(-324.34 -176.902)"/></g><path class="c" d="M395.4,228.806v82.728a3.362,3.362,0,0,0,1.566-.394,1.176,1.176,0,0,0,.688-.946l0,0V230.064Z" transform="translate(-334.115 -182.957)"/><path class="d" d="M423.853,216.593v-1h-.319l-.1.679Z" transform="translate(-339.927 -180.219)"/><path class="d" d="M398.16,231.435v-1.024l-.308.434Z" transform="translate(-334.624 -183.29)"/><path class="e" d="M377.6,219.025,320.607,186.12c-3.353-1.936-3.353-5.086,0-7.021l11.565-6.677a13.461,13.461,0,0,1,12.162,0l56.993,32.9a1.018,1.018,0,0,1,0,1.928,3.691,3.691,0,0,1-3.338,0l-56.994-32.905a6.07,6.07,0,0,0-5.484,0l-11.565,6.677c-1.513.873-1.513,2.293,0,3.166L380.939,217.1a1.018,1.018,0,0,1,0,1.928A3.691,3.691,0,0,1,377.6,219.025Z" transform="translate(-318.092 -170.969)"/><path class="d" d="M366.679,267.208l-29.616-17.1v-29.69l29.616,17.1Z" transform="translate(-322.024 -181.219)"/><g transform="translate(0.004 2.724)"><path class="d" d="M402.562,207.966a3.691,3.691,0,0,1-3.338,0L342.23,175.061a6.07,6.07,0,0,0-5.484,0l-11.565,6.677c-.99.572-1.328,1.377-1.021,2.111a2.3,2.3,0,0,1,1.021-1.056l11.565-6.677a6.068,6.068,0,0,1,5.484,0l56.994,32.9a3.686,3.686,0,0,0,3.338,0c.7-.4.865-1,.5-1.491A1.612,1.612,0,0,1,402.562,207.966Z" transform="translate(-319.331 -174.406)"/><path class="d" d="M380.94,222.206a3.691,3.691,0,0,1-3.338,0L320.608,189.3a4.6,4.6,0,0,1-2.463-2.983c-.265,1.441.554,2.936,2.463,4.038L377.6,223.262a3.691,3.691,0,0,0,3.338,0c.7-.4.865-1,.5-1.491A1.611,1.611,0,0,1,380.94,222.206Z" transform="translate(-318.097 -176.875)"/></g></g><g transform="translate(0 57.355)"><g transform="translate(0 80.128)"><path class="h" d="M286.643,312.345c-3.352,1.936-3.352,5.086,0,7.022l56.994,32.9a3.686,3.686,0,0,0,3.338,0,1.017,1.017,0,0,0,0-1.927l-56.993-32.905c-1.513-.873-1.513-2.293,0-3.166l5.522-3.188c-.614-.924-1.171-1.884-1.715-2.865Z" transform="translate(-284.128 -304.217)"/><path class="n" d="M369.889,337.527l-56.993-32.9a13.461,13.461,0,0,0-12.162,0l-4.419,2.552c.545.981,1.1,1.941,1.715,2.865l6.043-3.489a6.07,6.07,0,0,1,5.484,0l56.993,32.905a3.693,3.693,0,0,0,3.339,0A1.018,1.018,0,0,0,369.889,337.527Z" transform="translate(-286.654 -303.17)"/></g><path class="n" d="M368.784,318.008l.006-80.142-59.726-33.295-8.352-.551-8.077,5.232-4.956,4.314,58.192,92.279,19,11.2Z" transform="translate(-284.864 -202.491)"/><path class="q" d="M361.983,337.634l17.852-10.307V249.874l-18.4,8.554Z" transform="translate(-300.151 -211.995)"/><path class="h" d="M284.13,216.845v80.011l62.7,35.864.837-.335V252.256Z" transform="translate(-284.129 -205.149)"/><g transform="translate(4.953 4.703)"><path class="d" d="M320.688,215.679l-12.46-7.159a6.118,6.118,0,0,0-5.158.154l-11.565,6.677a1.767,1.767,0,0,0-1.091,1.9L321.9,236.067l25.292,15.524L365.107,241.2Z" transform="translate(-290.376 -208.024)"/></g><path class="n" d="M361.432,259.928v82.728a3.361,3.361,0,0,0,1.566-.394,1.176,1.176,0,0,0,.688-.946l0,0V261.186Z" transform="translate(-300.151 -214.079)"/><path class="d" d="M389.889,247.715v-1h-.319l-.1.679Z" transform="translate(-305.963 -211.341)"/><path class="d" d="M364.2,262.557v-1.024l-.308.434Z" transform="translate(-300.66 -214.412)"/><path class="h" d="M343.637,250.147l-56.994-32.905c-3.352-1.936-3.352-5.086,0-7.022l11.565-6.677a13.463,13.463,0,0,1,12.162,0l56.993,32.9a1.018,1.018,0,0,1,0,1.928,3.693,3.693,0,0,1-3.339,0L307.031,205.47a6.07,6.07,0,0,0-5.484,0l-11.565,6.677c-1.513.873-1.513,2.293,0,3.166l56.993,32.905a1.018,1.018,0,0,1,0,1.928A3.691,3.691,0,0,1,343.637,250.147Z" transform="translate(-284.128 -202.091)"/><path class="d" d="M332.715,298.33l-29.616-17.1v-29.69l29.616,17.1Z" transform="translate(-288.06 -212.341)"/><g transform="translate(0.004 2.725)"><path class="d" d="M368.6,239.088a3.693,3.693,0,0,1-3.339,0l-56.993-32.905a6.07,6.07,0,0,0-5.484,0l-11.565,6.677c-.99.572-1.328,1.378-1.022,2.111a2.3,2.3,0,0,1,1.022-1.055l11.565-6.678a6.068,6.068,0,0,1,5.484,0l56.993,32.9a3.688,3.688,0,0,0,3.339,0c.7-.4.865-1,.5-1.491A1.61,1.61,0,0,1,368.6,239.088Z" transform="translate(-285.367 -205.528)"/><path class="d" d="M346.976,253.328a3.691,3.691,0,0,1-3.338,0l-56.994-32.905a4.6,4.6,0,0,1-2.462-2.983c-.265,1.441.553,2.936,2.462,4.038l56.994,32.905a3.691,3.691,0,0,0,3.338,0c.7-.4.865-1,.5-1.491A1.622,1.622,0,0,1,346.976,253.328Z" transform="translate(-284.133 -207.997)"/></g></g></g></g></g><g transform="translate(440.413 100.01)"><g transform="translate(0 0)"><path class="i" d="M526.591,162.3l-13.66-7.886,13.659-7.886,13.66,7.886Z" transform="translate(-512.931 -120.745)"/><path class="v" d="M543.822,139.723l-13.659,7.886V131.837l13.659-7.886Z" transform="translate(-516.503 -116.065)"/><path class="e" d="M526.591,129.776l-13.659-7.886L526.59,114l13.659,7.886Z" transform="translate(-512.931 -114.003)"/><path class="e" d="M526.591,147.609l-13.659-7.886V123.951l13.659,7.886Z" transform="translate(-512.931 -116.065)"/></g><path class="d" d="M522.958,141.317l-3.82-2.206V134.7l3.82,2.206Z" transform="translate(-514.218 -118.293)"/></g><path class="i" d="M177.281,394.05l-14.221-8.21,14.22-8.21,14.221,8.21-14.22,8.21" transform="translate(0 -68.636)"/><path class="w" d="M195.22,370.544,181,378.755v-16.42l14.22-8.21Z" transform="translate(-3.718 -63.764)"/><path class="h" d="M177.281,360.188l-14.22-8.21,14.22-8.21,14.22,8.21Z" transform="translate(0 -61.617)"/><path class="n" d="M177.281,378.755l-14.22-8.21v-16.42l14.22,8.21Z" transform="translate(0 -63.764)"/><path class="d" d="M173.5,372.2l-3.977-2.3v-4.592l3.977,2.3Z" transform="translate(-1.339 -66.083)"/><g transform="translate(258.856 70.84)"><g transform="translate(0)"><path class="c" d="M337.083,74.686,301.552,54.172a1.818,1.818,0,0,0-1.837-.147l0-.023-3.447,1.991,2.422.885V82.753a6.846,6.846,0,0,0,2.859,5.462l33.96,19.607v3.036L339,108.853l-.019-.006a2.533,2.533,0,0,0,.966-2.279V80.148A6.846,6.846,0,0,0,337.083,74.686Z" transform="translate(-295.183 -53.84)"/><path class="f" d="M333.289,111.278,297.758,90.764A6.848,6.848,0,0,1,294.9,85.3V58.882c0-2.105,1.28-3.073,2.859-2.161l35.532,20.513a6.848,6.848,0,0,1,2.859,5.463v26.419C336.148,111.222,334.868,112.189,333.289,111.278Z" transform="translate(-294.899 -54.366)"/><path class="d" d="M334.512,76.443,298.981,55.93a1.66,1.66,0,0,0-2.388.344,2,2,0,0,1,1.516.284L333.64,77.071a6.848,6.848,0,0,1,2.859,5.463v26.419a3.19,3.19,0,0,1-.471,1.817c.8-.21,1.343-1.084,1.343-2.445V81.9A6.848,6.848,0,0,0,334.512,76.443Z" transform="translate(-295.25 -54.202)"/></g><g transform="translate(10.013 22.814)"><path class="d" d="M312.324,87.1c0,1.529-1.073,2.148-2.4,1.384a5.3,5.3,0,0,1-2.4-4.152c0-1.528,1.073-2.148,2.4-1.384A5.3,5.3,0,0,1,312.324,87.1Z" transform="translate(-307.53 -82.619)"/><path class="d" d="M321.486,92.389c0,1.528-1.073,2.148-2.4,1.384a5.3,5.3,0,0,1-2.4-4.152c0-1.529,1.073-2.148,2.4-1.384A5.3,5.3,0,0,1,321.486,92.389Z" transform="translate(-309.429 -83.716)"/><path class="d" d="M330.647,97.678c0,1.529-1.073,2.148-2.4,1.384a5.3,5.3,0,0,1-2.4-4.152c0-1.529,1.073-2.148,2.4-1.384A5.3,5.3,0,0,1,330.647,97.678Z" transform="translate(-311.328 -84.812)"/></g></g></g></svg>